<?xml version="1.0" encoding="UTF-8"?>
<svg id="Layer_1" xmlns="http://www.w3.org/2000/svg" version="1.1" viewBox="0 0 800 800">
  <!-- Generator: Adobe Illustrator 29.0.0, SVG Export Plug-In . SVG Version: 2.1.0 Build 186)  -->
  <defs>
    <style>
      .st0 {
        fill: #fff;
      }
    </style>
  </defs>
  <rect x="0" y="0" width="800" height="800" rx="400" ry="400"/>
  <path class="st0" d="M427.62,284.34h91.91c4.06,0,5.47,8.99,5.81,12.35.71,7.1,1.87,44.39-5.81,44.39h-88.51l-3.4,3.4v246.23c51.52-2.02,124.8-57.9,131.59-110.14.92-7.1-14.52-.88-20.4-4.43-2.91-1.76-4.52-6.97-3.6-10.29,1.44-5.21,37.05-47.91,43.3-54.45,9.06-9.48,12.44-16.72,23.95-5.72,5.65,5.4,46.66,55.48,47.52,59.18.51,2.2.74,8.16-.27,9.79l-30.41,4.76c-15.1,93.35-99.86,161.11-191.65,170.31,7.6,12.75-18.56,40.68-28.38,40.68s-35.98-27.93-28.38-40.68c-91.93-9.4-176.2-77.02-191.65-170.31-4.17-5.96-24.98,2.63-29.62-6.69l.05-11.32,49.77-59.16c1.92-1.78,4.2-2.52,6.81-2.27,9.36.91,46.91,54.62,56.89,63.8,2.31,3.27-.44,10.58-3.43,12.37-5.91,3.55-21.32-2.65-20.4,4.44,6.74,51.86,80.38,108.06,131.59,110.14v-246.23l-3.4-3.4h-88.51c-4.06,0-5.47-8.99-5.81-12.35-.71-7.1-1.87-44.39,5.81-44.39h91.91l-1.1-25c-63.26-28.28-64.58-120.52,2.75-144.69,81.21-29.16,143.66,74.86,74.32,133.32-15.92,13.43-23.18,6.96-19.23,36.37ZM397.55,157.81c-38.39,2.09-33.39,61.17,3.94,58.59,36.88-2.55,34.22-60.67-3.94-58.59Z"/>
</svg>
